<svg width="360" height="283" viewBox="0 0 360 283" fill="none" xmlns="http://www.w3.org/2000/svg">
<g opacity="0.5">
<path d="M222.094 232.795C222.094 255.945 215.23 278.575 202.368 297.823C189.507 317.071 171.227 332.074 149.839 340.933C128.452 349.792 104.917 352.11 82.2124 347.593C59.5075 343.077 38.6517 331.929 22.2823 315.56C5.91298 299.191 -5.23468 278.335 -9.75097 255.63C-14.2673 232.925 -11.9493 209.391 -3.09031 188.003C5.76871 166.616 20.7709 148.335 40.0193 135.474C59.2676 122.613 81.8974 115.748 105.047 115.748L105.047 165.648C91.7668 165.648 78.7847 169.586 67.7424 176.965C56.7002 184.343 48.0938 194.83 43.0117 207.099C37.9295 219.369 36.5997 232.87 39.1906 245.895C41.7815 258.92 48.1766 270.884 57.5672 280.275C66.9579 289.666 78.9223 296.061 91.9475 298.652C104.973 301.243 118.474 299.913 130.743 294.831C143.013 289.748 153.5 281.142 160.878 270.1C168.256 259.058 172.194 246.075 172.194 232.795H222.094Z" fill="#F2FA5B"/>
<path fill-rule="evenodd" clip-rule="evenodd" d="M210.54 0H360.087V49.849L360.087 49.849V99.6979H360.084C359.875 130.409 347.584 159.817 325.853 181.549C303.933 203.468 274.203 215.783 243.204 215.783C212.205 215.783 182.476 203.468 160.556 181.549C138.636 159.629 126.322 129.9 126.322 98.9005L176.152 98.9004C176.152 116.684 183.217 133.739 195.791 146.313C208.366 158.888 225.421 165.953 243.204 165.953C260.988 165.953 278.043 158.888 290.617 146.313C303.004 133.927 310.044 117.193 310.252 99.6979H310.238V49.849L210.54 49.849V0Z" fill="#FEFCBF"/>
</g>
</svg>
